<svg width="15.419998" height="6.853516" viewBox="0 0 15.42 6.85352" fill="none" xmlns="http://www.w3.org/2000/svg" xmlns:xlink="http://www.w3.org/1999/xlink">
	<desc>
			Created with Pixso.
	</desc>
	<defs/>
	<path id="Vector" d="M15.42 3.39C15.42 3.43 15.41 3.47 15.39 3.52C15.38 3.56 15.36 3.59 15.34 3.61L11.9 6.77C11.86 6.81 11.81 6.83 11.75 6.84C11.69 6.85 11.64 6.85 11.59 6.83C11.55 6.81 11.51 6.77 11.47 6.73C11.43 6.68 11.42 6.62 11.42 6.56L11.42 4.56L0.28 4.56C0.2 4.56 0.14 4.54 0.08 4.48C0.02 4.43 0 4.36 0 4.28L0 2.56C0 2.49 0.02 2.42 0.08 2.37C0.14 2.31 0.2 2.28 0.28 2.28L11.42 2.28L11.42 0.28C11.42 0.22 11.43 0.17 11.46 0.13C11.49 0.08 11.54 0.05 11.59 0.02C11.64 0 11.69 -0.01 11.75 0C11.81 0.01 11.86 0.03 11.9 0.06L15.34 3.19C15.36 3.22 15.38 3.25 15.39 3.29C15.41 3.33 15.42 3.36 15.42 3.39Z" fill="#FFFFFF" fill-opacity="0.600000" fill-rule="nonzero"/>
</svg>
