<svg width="18.000000" height="14.150391" viewBox="0 0 18 14.1504" fill="none" xmlns="http://www.w3.org/2000/svg" xmlns:xlink="http://www.w3.org/1999/xlink">
	<desc>
			Created with Pixso.
	</desc>
	<defs/>
	<path id="Vector" d="M18 4.57L18 12.55C18 12.98 17.84 13.35 17.52 13.67C17.2 13.99 16.83 14.15 16.4 14.15L1.59 14.15C1.16 14.15 0.79 13.99 0.47 13.67C0.15 13.35 0 12.98 0 12.55L0 4.57C0.15 4.73 0.31 4.88 0.48 5.03C0.65 5.18 0.83 5.32 1.01 5.44C1.42 5.73 1.84 6.01 2.26 6.29C2.68 6.57 3.1 6.85 3.52 7.14C3.94 7.43 4.35 7.72 4.76 8.01C5.18 8.3 5.6 8.6 6.01 8.91C6.43 9.21 6.89 9.52 7.4 9.83C7.91 10.14 8.44 10.3 8.98 10.3L9.01 10.3C9.55 10.3 10.08 10.14 10.59 9.83C11.1 9.52 11.56 9.21 11.98 8.91C12.39 8.6 12.81 8.31 13.23 8.03C13.64 7.74 14.05 7.44 14.47 7.15C14.89 6.86 15.31 6.57 15.73 6.29C16.15 6.01 16.57 5.73 16.99 5.44C17.17 5.32 17.34 5.18 17.51 5.03C17.68 4.88 17.84 4.73 18 4.57ZM18 1.61C18 2.17 17.82 2.7 17.47 3.18C17.12 3.66 16.72 4.05 16.27 4.35C15.89 4.64 15.49 4.91 15.09 5.18C14.71 5.45 14.32 5.72 13.93 5.99C13.53 6.26 13.14 6.53 12.74 6.82C12.35 7.08 11.97 7.35 11.58 7.62C11.25 7.85 10.84 8.13 10.35 8.48C9.86 8.82 9.41 9 9.01 9L8.98 9C8.58 9 8.13 8.82 7.64 8.48C7.15 8.13 6.74 7.85 6.41 7.62C6.02 7.35 5.64 7.08 5.25 6.82C4.85 6.53 4.46 6.26 4.06 5.99C3.67 5.72 3.28 5.45 2.9 5.18C2.5 4.91 2.1 4.64 1.72 4.35C1.37 4.12 0.99 3.75 0.59 3.26C0.19 2.76 0 2.28 0 1.82C0 1.33 0.13 0.9 0.4 0.54C0.67 0.18 1.07 0 1.59 0L16.4 0C16.83 0 17.2 0.15 17.52 0.47C17.84 0.79 18 1.17 18 1.61Z" fill="#FFFFFF" fill-opacity="0.600000" fill-rule="nonzero"/>
</svg>
