<svg width="10.283203" height="15.433594" viewBox="0 0 10.2832 15.4336" fill="none" xmlns="http://www.w3.org/2000/svg" xmlns:xlink="http://www.w3.org/1999/xlink">
	<desc>
			Created with Pixso.
	</desc>
	<defs/>
	<path id="Vector" d="M7.71 5.15C7.71 4.43 7.46 3.82 6.96 3.33C6.45 2.83 5.85 2.58 5.15 2.58C4.43 2.58 3.82 2.83 3.32 3.33C2.81 3.82 2.56 4.43 2.56 5.15C2.56 5.85 2.81 6.45 3.32 6.96C3.82 7.46 4.43 7.71 5.15 7.71C5.85 7.71 6.45 7.46 6.96 6.96C7.46 6.45 7.71 5.85 7.71 5.15ZM10.28 5.15C10.28 5.45 10.25 5.76 10.21 6.07C10.16 6.38 10.07 6.67 9.94 6.94L6.29 14.71C6.18 14.93 6.02 15.11 5.81 15.24C5.6 15.36 5.38 15.43 5.15 15.43C4.9 15.43 4.67 15.36 4.46 15.24C4.25 15.11 4.09 14.93 3.99 14.71L0.33 6.94C0.2 6.67 0.11 6.38 0.07 6.07C0.02 5.76 0 5.45 0 5.15C0 4.43 0.13 3.76 0.4 3.14C0.67 2.52 1.04 1.98 1.5 1.51C1.96 1.04 2.51 0.67 3.14 0.4C3.76 0.13 4.43 0 5.15 0C5.85 0 6.52 0.13 7.15 0.4C7.77 0.67 8.31 1.04 8.78 1.51C9.24 1.98 9.6 2.52 9.87 3.14C10.14 3.76 10.28 4.43 10.28 5.15Z" fill="#FFFFFF" fill-opacity="1.000000" fill-rule="nonzero"/>
</svg>
