<svg width="14.150391" height="14.150391" viewBox="0 0 14.1504 14.1504" fill="none" xmlns="http://www.w3.org/2000/svg" xmlns:xlink="http://www.w3.org/1999/xlink">
	<desc>
			Created with Pixso.
	</desc>
	<defs/>
	<path id="Vector" d="M14.15 11.17C14.15 11.35 14.11 11.58 14.04 11.88C13.97 12.17 13.9 12.4 13.83 12.56C13.72 12.81 13.55 13.02 13.3 13.19C13.06 13.36 12.82 13.51 12.6 13.64C12.31 13.79 12.01 13.91 11.7 14C11.4 14.1 11.08 14.15 10.74 14.15C10.27 14.15 9.82 14.07 9.39 13.92C8.96 13.76 8.53 13.61 8.1 13.44C7.79 13.34 7.5 13.22 7.2 13.08C6.91 12.95 6.62 12.79 6.34 12.62C5.92 12.35 5.48 12.02 5.02 11.65C4.57 11.27 4.12 10.87 3.69 10.45C3.25 10.02 2.85 9.58 2.47 9.12C2.1 8.66 1.78 8.22 1.52 7.8C1.35 7.52 1.19 7.23 1.06 6.94C0.92 6.65 0.8 6.35 0.68 6.04C0.53 5.61 0.38 5.18 0.22 4.75C0.07 4.32 0 3.87 0 3.41C0 3.07 0.04 2.74 0.13 2.44C0.21 2.13 0.34 1.83 0.5 1.54C0.63 1.31 0.78 1.07 0.95 0.83C1.12 0.59 1.33 0.42 1.58 0.31C1.74 0.24 1.97 0.17 2.26 0.1C2.56 0.03 2.79 0 2.97 0C3 0 3.04 0 3.07 0C3.11 0.01 3.14 0.02 3.18 0.03C3.28 0.07 3.38 0.18 3.48 0.36C3.58 0.55 3.66 0.69 3.7 0.79C3.87 1.08 4.03 1.37 4.19 1.66C4.35 1.94 4.51 2.23 4.67 2.51C4.75 2.64 4.85 2.78 4.97 2.94C5.09 3.1 5.15 3.25 5.15 3.41C5.15 3.71 4.84 4.06 4.23 4.45C3.62 4.84 3.32 5.18 3.32 5.46C3.32 5.59 3.36 5.73 3.46 5.89C3.55 6.05 3.63 6.19 3.7 6.32C4.22 7.24 4.81 8.02 5.46 8.68C6.12 9.33 6.9 9.91 7.82 10.42C7.93 10.49 8.08 10.57 8.24 10.67C8.4 10.77 8.55 10.82 8.68 10.82C8.95 10.82 9.28 10.52 9.68 9.91C10.08 9.3 10.43 9 10.74 9C10.89 9 11.04 9.05 11.2 9.17C11.36 9.29 11.5 9.39 11.63 9.47C11.91 9.63 12.2 9.79 12.48 9.95C12.77 10.11 13.06 10.27 13.34 10.42C13.44 10.48 13.59 10.56 13.78 10.66C13.96 10.76 14.08 10.86 14.11 10.96C14.12 11 14.13 11.03 14.14 11.07C14.14 11.1 14.15 11.14 14.15 11.17Z" fill="#FFFFFF" fill-opacity="0.600000" fill-rule="nonzero"/>
</svg>
