<svg width="60.102768" height="60.000000" viewBox="0 0 60.1028 60" fill="none" xmlns="http://www.w3.org/2000/svg" xmlns:xlink="http://www.w3.org/1999/xlink">
	<desc>
			Created with Pixso.
	</desc>
	<defs/>
	<path id="Vector" d="M24.25 5.15C23.86 5 23.51 4.76 23.2 4.45C22.73 3.98 22.5 3.37 22.5 2.63C22.5 1.89 22.75 1.26 23.26 0.76C23.76 0.25 24.37 0 25.07 0L35.62 0C36.32 0 36.95 0.23 37.5 0.7C38.04 1.17 38.32 1.75 38.32 2.46C38.32 2.53 38.32 2.57 38.32 2.57C38.32 3.35 38.08 3.98 37.61 4.45C37.3 4.76 36.95 5 36.56 5.15L36.56 26.36C36.56 28.08 35.95 29.55 34.74 30.76C33.53 31.97 32.08 32.57 30.41 32.57C28.73 32.57 27.28 31.97 26.07 30.76C24.86 29.55 24.25 28.08 24.25 26.36L24.25 15L24.25 5.15ZM25.07 1.75C24.53 1.75 24.25 2.05 24.25 2.63C24.25 3.22 24.53 3.51 25.07 3.51L28.71 3.51L28.82 3.51C29.37 3.51 29.64 3.8 29.64 4.39C29.64 4.98 29.33 5.27 28.71 5.27L26.01 5.27L26.01 26.36C26.01 27.61 26.44 28.67 27.3 29.53C28.16 30.39 29.19 30.82 30.41 30.82C31.62 30.82 32.65 30.39 33.51 29.53C34.37 28.67 34.8 27.61 34.8 26.36L34.8 15.93L28.71 15.93C28.08 15.93 27.77 15.64 27.77 15.05C27.77 14.47 28.08 14.17 28.71 14.17L34.8 14.17L34.8 5.27L32.34 5.27C31.71 5.27 31.4 4.98 31.4 4.39C31.4 3.8 31.71 3.51 32.34 3.51L35.74 3.51C36.28 3.51 36.56 3.2 36.56 2.57C36.56 2.34 36.46 2.14 36.26 1.99C36.07 1.83 35.85 1.75 35.62 1.75L25.07 1.75ZM59.17 49.92C60.42 52.1 60.41 54.33 59.12 56.6C57.83 58.86 55.89 60 53.32 60L37.26 60C34.68 60 32.73 58.86 31.4 56.6C30.07 54.33 30.07 52.1 31.4 49.92L39.49 35.97C39.96 35.19 40.19 33.75 40.19 31.64L40.19 25.54C38.78 25.31 38.08 24.45 38.08 22.96C38.08 22.26 38.33 21.67 38.84 21.21C39.35 20.74 40 20.5 40.78 20.5L49.8 20.5C50.27 20.5 50.7 20.6 51.09 20.8C51.48 20.99 51.79 21.28 52.03 21.67C52.26 22.07 52.38 22.46 52.38 22.85C52.38 22.92 52.38 22.96 52.38 22.96C52.38 24.45 51.71 25.31 50.39 25.54L50.39 31.64C50.39 33.75 50.62 35.19 51.09 35.97L59.17 49.92ZM53.32 58.24C55.19 58.24 56.62 57.4 57.59 55.72C58.57 54.04 58.59 52.38 57.65 50.74L49.57 36.79C48.94 35.78 48.63 34.06 48.63 31.64L48.63 25.66L47.81 25.66C47.18 25.66 46.87 25.37 46.87 24.78C46.87 24.19 47.18 23.9 47.81 23.9L49.8 23.9C50.35 23.9 50.62 23.59 50.62 22.96C50.62 22.5 50.35 22.26 49.8 22.26L40.78 22.26C40.15 22.26 39.84 22.5 39.84 22.96C39.84 23.59 40.15 23.9 40.78 23.9L44.29 23.9C44.84 23.9 45.11 24.19 45.11 24.78C45.11 25.37 44.84 25.66 44.29 25.66L41.95 25.66L41.95 31.64C41.95 34.06 41.64 35.78 41.01 36.79L32.92 50.74C31.99 52.38 31.99 54.04 32.92 55.72C33.86 57.4 35.31 58.24 37.26 58.24L53.32 58.24ZM52.03 44.53L56.01 51.44C56.64 52.53 56.64 53.65 56.01 54.78C55.39 55.91 54.41 56.48 53.08 56.48L37.5 56.48C36.17 56.48 35.19 55.91 34.57 54.78C33.94 53.65 33.94 52.53 34.57 51.44L38.55 44.53C38.71 44.29 38.94 44.17 39.25 44.17L48.28 44.17C48.9 44.17 49.21 44.47 49.21 45.05C49.21 45.64 48.9 45.93 48.28 45.93L39.84 45.93L36.09 52.26C35.78 52.81 35.78 53.35 36.09 53.9C36.4 54.45 36.87 54.72 37.5 54.72L53.08 54.72C53.71 54.72 54.17 54.45 54.49 53.9C54.8 53.35 54.8 52.81 54.49 52.26L50.5 45.46C50.19 44.92 50.29 44.51 50.8 44.23C51.3 43.96 51.71 44.06 52.03 44.53ZM42.94 46.99C42.94 46.99 43.09 46.99 43.38 46.99C43.68 46.99 43.82 47.28 43.82 47.87C43.82 48.45 43.53 48.75 42.94 48.75C42.36 48.75 42.07 48.45 42.07 47.87C42.07 47.28 42.36 46.99 42.94 46.99ZM48.22 49.92C48.22 49.92 48.36 49.92 48.66 49.92C48.95 49.92 49.1 50.21 49.1 50.8C49.1 51.38 48.8 51.67 48.22 51.67C47.63 51.67 47.34 51.38 47.34 50.8C47.34 50.21 47.63 49.92 48.22 49.92ZM44.12 51.67C44.12 51.67 44.26 51.67 44.56 51.67C44.85 51.67 45 51.97 45 52.55C45 53.14 44.7 53.43 44.12 53.43C43.53 53.43 43.24 53.14 43.24 52.55C43.24 51.97 43.53 51.67 44.12 51.67ZM20.62 29.76C23.75 30.85 26.26 32.75 28.18 35.44C30.09 38.14 31.05 41.17 31.05 44.53C31.05 47.26 30.37 49.82 29 52.2C27.63 54.58 25.76 56.48 23.37 57.89C20.99 59.29 18.39 60 15.58 60C11.28 60 7.61 58.47 4.57 55.42C1.52 52.38 0 48.71 0 44.41C0 41.13 0.97 38.14 2.92 35.44C4.88 32.75 7.38 30.85 10.42 29.76L10.42 25.66C9.96 25.58 9.57 25.35 9.25 24.96C8.71 24.41 8.43 23.78 8.43 23.08C8.43 22.38 8.69 21.75 9.19 21.21C9.7 20.66 10.31 20.39 11.01 20.39L20.03 20.39C20.82 20.39 21.46 20.66 21.97 21.21C22.48 21.75 22.73 22.38 22.73 23.08C22.73 24.49 22.03 25.35 20.62 25.66L20.62 29.76ZM15.58 58.24C19.41 58.24 22.65 56.89 25.31 54.19C27.96 51.5 29.29 48.28 29.29 44.53C29.29 42.57 28.92 40.72 28.18 38.96C27.44 37.2 26.36 35.68 24.96 34.39C23.55 33.1 21.95 32.14 20.15 31.52C19.29 31.21 18.86 30.62 18.86 29.76L18.86 25.78L17.34 25.78C16.79 25.78 16.52 25.46 16.52 24.84C16.52 24.21 16.79 23.9 17.34 23.9L20.15 23.9C20.7 23.9 20.97 23.63 20.97 23.08C20.97 22.53 20.66 22.26 20.03 22.26L11.01 22.26C10.46 22.26 10.19 22.53 10.19 23.08C10.19 23.63 10.46 23.9 11.01 23.9L13.82 23.9C14.37 23.9 14.64 24.19 14.64 24.78C14.64 25.37 14.37 25.7 13.82 25.78L12.18 25.78L12.18 29.76C12.18 30.62 11.79 31.17 11.01 31.4C8.28 32.42 6.07 34.12 4.39 36.5C2.71 38.88 1.87 41.52 1.87 44.41C1.79 48.24 3.12 51.5 5.85 54.19C8.59 56.89 11.83 58.24 15.58 58.24ZM22.03 39.02C23.59 39.02 24.92 39.57 26.01 40.66C27.1 41.75 27.61 43.04 27.53 44.53C27.61 47.73 26.48 50.52 24.14 52.91C21.79 55.29 18.94 56.48 15.58 56.48C12.38 56.48 9.6 55.35 7.26 53.08C4.92 50.82 3.71 48.08 3.63 44.88C3.55 43.16 4.1 41.75 5.27 40.66C6.36 39.57 7.65 39.02 9.14 39.02C10.07 39.02 11.01 39.31 11.95 39.9C12.89 40.48 13.63 41.05 14.17 41.6C14.72 42.14 15.39 42.92 16.17 43.94C16.79 44.72 17.28 45.31 17.63 45.7C17.98 46.09 18.41 46.52 18.92 46.99C19.43 47.46 19.94 47.81 20.44 48.04C20.95 48.28 21.48 48.39 22.03 48.39C23.04 48.39 23.92 48.04 24.66 47.34C25.41 46.64 25.78 45.78 25.78 44.76C25.85 43.59 25.5 42.63 24.72 41.89C23.94 41.15 23.04 40.78 22.03 40.78C21.01 40.78 19.84 41.36 18.51 42.53C18.12 42.92 17.73 42.91 17.34 42.48C16.95 42.05 16.95 41.64 17.34 41.25C18.98 39.76 20.54 39.02 22.03 39.02ZM15.58 54.72C17.46 54.72 19.17 54.25 20.74 53.32C22.3 52.38 23.55 51.13 24.49 49.57C23.71 49.96 22.89 50.15 22.03 50.15C21.09 50.15 20.15 49.86 19.21 49.27C18.28 48.69 17.53 48.12 16.99 47.57C16.44 47.03 15.74 46.21 14.88 45.11C14.1 44.17 13.49 43.45 13.06 42.94C12.63 42.44 12.05 41.95 11.3 41.48C10.56 41.01 9.84 40.78 9.14 40.78C8.43 40.78 7.81 40.93 7.26 41.25C6.71 41.56 6.26 42.01 5.91 42.59C5.56 43.18 5.39 43.82 5.39 44.53C5.31 46.25 5.7 47.89 6.56 49.45C7.42 51.01 8.65 52.28 10.25 53.26C11.85 54.23 13.63 54.72 15.58 54.72ZM8.49 44.17C8.49 44.17 8.64 44.17 8.93 44.17C9.22 44.17 9.37 44.47 9.37 45.05C9.37 45.64 9.08 45.93 8.49 45.93C7.91 45.93 7.61 45.64 7.61 45.05C7.61 44.47 7.91 44.17 8.49 44.17ZM13.76 47.1C13.76 47.1 13.91 47.1 14.2 47.1C14.5 47.1 14.64 47.4 14.64 47.98C14.64 48.57 14.35 48.86 13.76 48.86C13.18 48.86 12.89 48.57 12.89 47.98C12.89 47.4 13.18 47.1 13.76 47.1ZM9.66 48.86C9.66 48.86 9.81 48.86 10.1 48.86C10.4 48.86 10.54 49.16 10.54 49.74C10.54 50.33 10.25 50.62 9.66 50.62C9.08 50.62 8.78 50.33 8.78 49.74C8.78 49.16 9.08 48.86 9.66 48.86Z" fill="#FFBD39" fill-opacity="1.000000" fill-rule="nonzero"/>
</svg>
