<svg width="60.000000" height="58.125000" viewBox="0 0 60 58.125" fill="none" xmlns="http://www.w3.org/2000/svg" xmlns:xlink="http://www.w3.org/1999/xlink">
	<desc>
			Created with Pixso.
	</desc>
	<defs/>
	<path id="Vector" d="M23.2 5.85C23.2 5.85 24.25 5.85 26.36 5.85C28.47 5.85 31.01 7.34 33.98 10.31C36.95 13.28 38.43 16.85 38.43 21.03C38.43 25.21 36.95 28.78 33.98 31.75C31.01 34.72 27.42 36.21 23.2 36.21C18.98 36.21 15.39 34.72 12.42 31.75C9.45 28.78 7.96 25.21 7.96 21.03C7.96 16.85 9.45 13.28 12.42 10.31C15.39 7.34 18.98 5.85 23.2 5.85ZM13.71 11.48C11.52 13.59 10.23 16.15 9.84 19.16C9.45 22.16 9.96 24.92 11.36 27.42L15 23.67C14.68 23.2 14.53 22.69 14.53 22.14C14.53 21.28 14.84 20.56 15.46 19.98C16.09 19.39 16.83 19.1 17.69 19.1C18.55 19.1 19.27 19.39 19.86 19.98C20.44 20.56 20.74 21.28 20.74 22.14L20.74 22.26L27.65 24.37C28.28 23.43 29.14 22.96 30.23 22.96C30.78 22.96 31.28 23.12 31.75 23.43L36.44 18.75C35.97 15.93 34.72 13.51 32.69 11.48C30.03 8.9 26.85 7.61 23.14 7.61C19.43 7.61 16.28 8.9 13.71 11.48ZM31.64 26.13C31.64 25.89 31.56 25.66 31.4 25.42C31.25 25.19 31.07 25.01 30.87 24.9C30.68 24.78 30.46 24.72 30.23 24.72C29.84 24.72 29.51 24.86 29.23 25.13C28.96 25.41 28.82 25.72 28.82 26.07C28.82 26.42 28.96 26.73 29.23 27.01C29.51 27.28 29.84 27.42 30.23 27.42C30.62 27.42 30.95 27.28 31.23 27.01C31.5 26.73 31.64 26.44 31.64 26.13ZM18.98 22.14C18.98 21.75 18.84 21.42 18.57 21.15C18.3 20.87 18 20.74 17.69 20.74C17.46 20.74 17.22 20.82 16.99 20.97C16.75 21.13 16.58 21.3 16.46 21.5C16.34 21.69 16.28 21.91 16.28 22.14C16.28 22.53 16.42 22.87 16.69 23.14C16.97 23.41 17.3 23.55 17.69 23.55C17.92 23.55 18.14 23.47 18.33 23.32C18.53 23.16 18.69 22.98 18.8 22.79C18.92 22.59 18.98 22.38 18.98 22.14ZM23.14 34.45C23.14 34.45 24.07 34.45 25.92 34.45C27.78 34.45 30.03 33.14 32.69 30.52C35.35 27.91 36.67 24.76 36.67 21.09L32.92 24.6C33.16 25.07 33.28 25.58 33.28 26.13C33.28 26.99 32.98 27.71 32.4 28.3C31.81 28.88 31.09 29.17 30.23 29.17C29.37 29.17 28.65 28.88 28.06 28.3C27.48 27.71 27.18 26.99 27.18 26.13L27.18 26.01L20.27 23.9C19.64 24.76 18.78 25.19 17.69 25.19C17.14 25.19 16.64 25.07 16.17 24.84L12.3 28.94C12.69 29.49 13.16 30.03 13.71 30.58C16.28 33.16 19.43 34.45 23.14 34.45ZM15.46 12.18C17.1 10.85 18.94 10 20.97 9.6C23 9.21 25.03 9.33 27.07 9.96L26.48 11.6C22.81 10.35 19.53 10.97 16.64 13.47L15.46 12.18ZM29.29 11.01C29.84 11.4 30.35 11.79 30.82 12.18L29.64 13.47C29.25 13.08 28.82 12.77 28.35 12.53L29.29 11.01ZM25.19 30.82L25.66 32.46C24.8 32.61 23.98 32.69 23.2 32.69C21.71 32.69 20.27 32.42 18.86 31.87L19.45 30.23C21.32 31.01 23.24 31.21 25.19 30.82ZM44.88 34.92L60 50.03L51.91 58.12L36.79 43L38.08 41.71L34.92 38.32C31.4 40.74 27.5 41.95 23.2 41.95C17.42 41.95 12.46 39.92 8.32 35.85C7.85 35.39 7.42 34.92 7.03 34.45L5.74 35.74C6.05 36.21 6.21 36.71 6.21 37.26C6.21 38.12 5.89 38.84 5.27 39.43C4.64 40.01 3.9 40.31 3.04 40.31C2.5 40.31 1.99 40.17 1.52 39.9C1.05 39.62 0.68 39.25 0.41 38.78C0.13 38.32 0 37.81 0 37.26C0 36.4 0.29 35.68 0.87 35.09C1.46 34.51 2.18 34.21 3.04 34.21C3.59 34.21 4.1 34.33 4.57 34.57L5.97 33.04C3.08 28.98 1.85 24.39 2.28 19.27C2.71 14.16 4.72 9.8 8.32 6.21C12.46 2.14 17.42 0.11 23.2 0.11C28.98 0.11 33.9 2.14 37.96 6.21C39.92 8.16 41.44 10.39 42.53 12.89L44.41 11.01C44.1 10.54 43.94 10.03 43.94 9.49C43.94 8.71 44.25 8 44.88 7.38C45.5 6.75 46.25 6.44 47.1 6.44C47.65 6.44 48.16 6.6 48.63 6.91L53.9 1.75L51.32 1.75L51.32 0L56.83 0L56.83 5.62L55.19 5.62L55.19 2.92L49.8 8.08C50.03 8.55 50.15 9.02 50.15 9.49C50.15 10.35 49.86 11.09 49.27 11.71C48.69 12.34 47.96 12.65 47.1 12.65C46.56 12.65 46.05 12.53 45.58 12.3L43.12 14.64C44.14 17.69 44.41 20.82 43.94 24.02C43.47 27.22 42.34 30.15 40.54 32.81L43.59 36.21L44.88 34.92ZM48.04 8.61C48.04 8.61 47.98 8.54 47.87 8.4C47.75 8.27 47.5 8.2 47.1 8.2C46.71 8.2 46.38 8.33 46.11 8.61C45.83 8.88 45.7 9.19 45.7 9.55C45.7 9.9 45.83 10.21 46.11 10.48C46.38 10.76 46.71 10.89 47.1 10.89C47.34 10.89 47.55 10.83 47.75 10.72C47.94 10.6 48.1 10.44 48.22 10.25C48.33 10.05 48.39 9.8 48.39 9.49C48.39 9.17 48.28 8.88 48.04 8.61ZM2.16 38.2C2.16 38.2 2.23 38.26 2.37 38.37C2.5 38.49 2.75 38.55 3.1 38.55C3.45 38.55 3.76 38.43 4.04 38.2C4.31 37.96 4.45 37.65 4.45 37.26C4.45 36.87 4.31 36.54 4.04 36.26C3.76 35.99 3.45 35.85 3.1 35.85C2.75 35.85 2.44 35.99 2.16 36.26C1.89 36.54 1.75 36.87 1.75 37.26C1.75 37.65 1.89 37.96 2.16 38.2ZM3.98 21.03C3.98 21.03 3.98 22.37 3.98 25.04C3.98 27.72 5.85 30.93 9.6 34.68C13.35 38.43 17.89 40.31 23.2 40.31C28.51 40.31 33.04 38.43 36.79 34.68C40.54 30.93 42.42 26.38 42.42 21.03C42.42 15.68 40.54 11.13 36.79 7.38C33.04 3.63 28.51 1.75 23.2 1.75C17.89 1.75 13.35 3.63 9.6 7.38C5.85 11.13 3.98 15.68 3.98 21.03ZM36.32 37.38L39.25 40.54L42.42 37.38L39.49 34.21C39.02 34.84 38.53 35.41 38.02 35.91C37.51 36.42 36.95 36.91 36.32 37.38ZM51.91 55.66L57.53 50.03L44.88 37.38L39.25 43L51.91 55.66ZM44.88 39.84L50.85 45.93L49.68 47.1L44.88 42.3L43.59 43.59L42.42 42.42L44.88 39.84ZM52.38 49.92L51.09 48.63L52.38 47.34L53.67 48.63L52.38 49.92ZM9.37 44.76L9.37 42.89L11.13 42.89L11.13 44.76L9.37 44.76ZM9.37 55.31L9.37 53.43L11.13 53.43L11.13 55.31L9.37 55.31ZM23.67 48.39L23.67 46.52L25.31 46.52L25.31 48.39L23.67 48.39ZM48.39 32.81L48.39 30.93L50.15 30.93L50.15 32.81L48.39 32.81ZM50.39 17.81L50.39 15.93L52.14 15.93L52.14 17.81L50.39 17.81ZM56.13 25.78L56.13 23.9L57.89 23.9L57.89 25.78L56.13 25.78Z" fill="#FFBD39" fill-opacity="1.000000" fill-rule="nonzero"/>
</svg>
