<svg width="46.613037" height="60.000000" viewBox="0 0 46.613 60" fill="none" xmlns="http://www.w3.org/2000/svg" xmlns:xlink="http://www.w3.org/1999/xlink">
	<desc>
			Created with Pixso.
	</desc>
	<defs/>
	<path id="Vector" d="M46.39 40.89C46.7 41.44 46.68 41.99 46.33 42.53C45.98 43.08 45.49 43.35 44.86 43.35L42.75 43.35L42.75 48.75C42.75 49.37 42.46 49.68 41.88 49.68C41.29 49.68 41 49.37 41 48.75L41 43.35L28.34 43.35C27.48 43.35 26.86 42.96 26.47 42.18L24.24 37.14L24.24 58.24L40.76 58.24C40.92 58.24 41 58.12 41 57.89L41 52.85C41 52.3 41.29 52.03 41.88 52.03C42.46 52.03 42.75 52.3 42.75 52.85L42.75 57.89C42.75 58.51 42.56 59.02 42.17 59.41C41.78 59.8 41.31 60 40.76 60L5.84 60C5.29 60 4.82 59.8 4.43 59.41C4.04 59.02 3.85 58.51 3.85 57.89L3.85 43.35L1.74 43.35C1.11 43.35 0.63 43.08 0.27 42.53C-0.08 41.99 -0.1 41.44 0.22 40.89L3.97 32.92C4.12 32.53 4.4 32.34 4.79 32.34L41.82 32.34C42.21 32.34 42.48 32.53 42.64 32.92L46.39 40.89ZM1.74 41.6L18.26 41.6C18.34 41.6 18.42 41.52 18.5 41.36L21.9 34.1L5.25 34.1L1.74 41.6ZM22.36 58.24L22.36 37.14L20.14 42.18C19.75 42.96 19.12 43.35 18.26 43.35L5.61 43.35L5.61 57.89C5.61 58.12 5.68 58.24 5.84 58.24L22.36 58.24ZM28.34 41.6C38.97 41.6 44.47 41.6 44.86 41.6L41.35 34.1L24.71 34.1L28.11 41.36C28.18 41.52 28.26 41.6 28.34 41.6ZM12.75 12.18C13.38 12.18 13.69 12.48 13.69 13.06C13.69 13.65 13.38 13.94 12.75 13.94L11.11 13.94C10.57 13.94 10.29 13.65 10.29 13.06C10.29 12.48 10.57 12.18 11.11 12.18L12.75 12.18ZM35.49 12.18C36.04 12.18 36.31 12.48 36.31 13.06C36.31 13.65 36.04 13.94 35.49 13.94L33.85 13.94C33.22 13.94 32.91 13.65 32.91 13.06C32.91 12.48 33.22 12.18 33.85 12.18L35.49 12.18ZM13.69 17.57C14.24 17.26 14.65 17.36 14.92 17.87C15.2 18.37 15.1 18.78 14.63 19.1L13.22 19.92C12.68 20.15 12.27 20.01 11.99 19.51C11.72 19 11.82 18.63 12.29 18.39L13.69 17.57ZM33.38 6.21C33.93 5.89 34.34 5.99 34.61 6.5C34.88 7.01 34.79 7.42 34.32 7.73L32.91 8.55C32.36 8.78 31.95 8.65 31.68 8.14C31.41 7.63 31.5 7.26 31.97 7.03L33.38 6.21ZM28.58 2.1C28.89 1.56 29.3 1.44 29.81 1.75C30.31 2.07 30.41 2.46 30.1 2.92L29.28 4.33C29.04 4.88 28.67 5 28.16 4.68C27.66 4.37 27.52 3.98 27.75 3.51L28.58 2.1ZM22.36 0.93C22.36 0.31 22.68 0 23.3 0C23.93 0 24.24 0.31 24.24 0.93L24.24 2.46C24.24 3.08 23.93 3.39 23.3 3.39C22.68 3.39 22.36 3.08 22.36 2.46L22.36 0.93ZM18.85 3.51C19.08 3.98 18.95 4.37 18.44 4.68C17.93 5 17.56 4.88 17.33 4.33L16.5 2.92C16.19 2.46 16.29 2.07 16.8 1.75C17.31 1.44 17.72 1.56 18.03 2.1L18.85 3.51ZM34.32 18.39C34.79 18.63 34.88 19 34.61 19.51C34.34 20.01 33.93 20.15 33.38 19.92L31.97 19.1C31.5 18.78 31.41 18.37 31.68 17.87C31.95 17.36 32.36 17.26 32.91 17.57L34.32 18.39ZM14.63 7.03C15.1 7.26 15.2 7.63 14.92 8.14C14.65 8.65 14.24 8.78 13.69 8.55L12.29 7.73C11.82 7.42 11.72 7.01 11.99 6.5C12.27 5.99 12.68 5.89 13.22 6.21L14.63 7.03ZM31.97 13.35C31.97 15.07 31.52 16.64 30.63 18.04C29.73 19.45 28.5 20.5 26.93 21.21L26.93 22.14C28.03 22.38 28.58 23.04 28.58 24.14L28.58 24.96C28.58 25.97 28.07 26.6 27.05 26.83L26.11 28.71C25.57 29.88 24.63 30.46 23.3 30.46C21.97 30.46 21.04 29.88 20.49 28.71L19.55 26.83C18.54 26.6 18.03 25.97 18.03 24.96L18.03 24.14C18.03 23.04 18.58 22.38 19.67 22.14L19.67 21.21C18.65 20.82 17.77 20.21 17.03 19.39C16.29 18.57 15.7 17.65 15.27 16.64C14.84 15.62 14.63 14.57 14.63 13.47C14.55 12.14 14.79 10.89 15.33 9.72C15.88 8.55 16.64 7.53 17.62 6.67C18.59 5.82 19.75 5.23 21.08 4.92C21.62 4.76 21.97 4.96 22.13 5.5C22.29 6.05 22.05 6.4 21.43 6.56C19.4 7.18 17.93 8.39 17.03 10.19C16.13 11.99 16.04 13.84 16.74 15.76C17.44 17.67 18.77 19.02 20.72 19.8C21.19 19.96 21.43 20.31 21.43 20.85L21.43 22.14L22.36 22.14L22.36 16.87L22.01 16.87C21.47 16.87 21 16.67 20.61 16.28C20.22 15.89 20.02 15.42 20.02 14.88C20.02 14.33 20.22 13.86 20.61 13.47C21 13.08 21.47 12.89 22.01 12.89L24.59 12.89C25.14 12.89 25.61 13.08 26 13.47C26.39 13.86 26.58 14.33 26.58 14.88C26.58 15.42 26.39 15.89 26 16.28C25.61 16.67 25.14 16.87 24.59 16.87L24.24 16.87L24.24 22.14L25.18 22.14L25.18 20.85C25.18 20.31 25.41 19.96 25.88 19.8C27.91 18.94 29.26 17.57 29.92 15.7C30.59 13.82 30.47 11.97 29.57 10.13C28.67 8.3 27.21 7.1 25.18 6.56C24.55 6.4 24.32 6.05 24.47 5.5C24.63 4.96 24.98 4.76 25.53 4.92C27.48 5.39 29.04 6.42 30.22 8.02C31.39 9.62 31.97 11.4 31.97 13.35ZM22.01 15.11L24.59 15.11C24.75 15.11 24.83 15.03 24.83 14.88C24.83 14.72 24.75 14.64 24.59 14.64L22.01 14.64C21.86 14.64 21.78 14.72 21.78 14.88C21.78 15.03 21.86 15.11 22.01 15.11ZM24.59 28L25.06 26.95L21.54 26.95L22.01 28C22.25 28.47 22.68 28.71 23.3 28.71C23.93 28.71 24.36 28.47 24.59 28ZM26.82 24.96L26.82 24.14C26.82 23.98 26.74 23.9 26.58 23.9L20.02 23.9C19.86 23.9 19.79 23.98 19.79 24.14L19.79 24.96C19.79 25.11 19.86 25.19 20.02 25.19L26.58 25.19C26.74 25.19 26.82 25.11 26.82 24.96Z" fill="#FFBD39" fill-opacity="1.000000" fill-rule="nonzero"/>
</svg>
